<?xml version="1.0" encoding="UTF-8"?>
<svg width="163px" height="53px" viewBox="0 0 163 53" version="1.1" xmlns="http://www.w3.org/2000/svg" xmlns:xlink="http://www.w3.org/1999/xlink">
    <g id="Page-1" stroke="none" stroke-width="1" fill="none" fill-rule="evenodd">
        <g id="Homepage" transform="translate(-31.000000, -50.000000)" fill="#FFFFFF">
            <g id="logo/PARTNER-default-inverse" transform="translate(13.000000, 50.000000)">
                <g id="Group-Copy-9" transform="translate(18.260688, 0.207843)">
                    <path d="M46.1188725,26.2010256 L46.1188725,33.1589744 L42.3315954,33.1589744 L42.3315954,14.1333333 L50.0826177,14.1333333 C51.2138292,14.1333333 52.2138052,14.2760242 53.0825756,14.5614103 C53.951346,14.8467963 54.6775729,15.2522196 55.261278,15.7776923 C55.8449831,16.303165 56.286149,16.9373467 56.5847888,17.6802564 C56.8834287,18.4231661 57.0327464,19.256662 57.0327464,20.1807692 C57.0327464,21.0958165 56.8834287,21.9247826 56.5847888,22.6676923 C56.286149,23.410602 55.8449831,24.0425188 55.261278,24.5634615 C54.6775729,25.0844043 53.9536084,25.4875627 53.0893628,25.7729487 C52.2251173,26.0583348 51.2319285,26.2010256 50.1097667,26.2010256 L46.1188725,26.2010256 Z M46.1188725,17.6258974 L46.1188725,22.735641 L50.0147454,22.735641 C51.05546,22.735641 51.8382466,22.5250021 52.3631287,22.1037179 C52.8880108,21.6824338 53.1504479,21.0414573 53.1504479,20.1807692 C53.1504479,19.329141 52.8880108,18.6904295 52.3631287,18.2646154 C51.8382466,17.8388013 51.05546,17.6258974 50.0147454,17.6258974 L46.1188725,17.6258974 Z M75.2542098,33.1589744 L71.2090178,33.1589744 L69.5529325,28.7287179 L61.4489739,28.7287179 L59.7928886,33.1589744 L55.8427178,33.1589744 L63.2408039,14.1333333 L67.8561237,14.1333333 L75.2542098,33.1589744 Z M62.752123,25.2361538 L68.2497833,25.2361538 L65.5077404,17.8841026 L62.752123,25.2361538 Z M84.828736,14.1333333 C85.9599474,14.1333333 86.9599234,14.2646995 87.8286938,14.5274359 C88.6974642,14.7901723 89.4259535,15.1684163 90.0141835,15.6621795 C90.6024134,16.1559426 91.0458432,16.7629451 91.3444815,17.4832051 C91.6431214,18.2034651 91.792439,19.0165767 91.792439,19.9225641 C91.792439,20.7017094 91.6612205,21.4174326 91.3987794,22.0697436 C91.1363383,22.7220545 90.7539946,23.2882882 90.2517367,23.7684615 C89.7494788,24.2486349 89.1386338,24.6404686 88.4191832,24.9439744 C87.6997327,25.2474802 86.8830103,25.4445295 85.9689914,25.5351282 L91.819588,33.1589744 L87.2314171,33.1589744 L81.6930334,25.5894872 L80.5799269,25.5894872 L80.5799269,33.1589744 L76.7926498,33.1589744 L76.7926498,14.1333333 L84.828736,14.1333333 Z M80.5799269,17.6258974 L80.5799269,22.2871795 L84.7608636,22.2871795 C85.8015782,22.2871795 86.5843648,22.09466 87.1092469,21.7096154 C87.634129,21.3245707 87.8965662,20.7288929 87.8965662,19.9225641 C87.8965662,19.1252952 87.6273419,18.543207 87.0888852,18.1762821 C86.5504285,17.8093571 85.7744291,17.6258974 84.7608636,17.6258974 L80.5799269,17.6258974 Z M108.1542,17.6802564 L102.26288,17.6802564 L102.26288,33.1589744 L98.4756031,33.1589744 L98.4756031,17.6802564 L92.5842831,17.6802564 L92.5842831,14.1333333 L108.1542,14.1333333 L108.1542,17.6802564 Z M126.837196,33.1589744 L123.280684,33.1589744 L113.642811,20.4525641 L113.629236,33.1589744 L109.841959,33.1589744 L109.841959,14.1333333 L113.384896,14.1333333 L123.036344,26.8397436 L123.036344,14.1333333 L126.837196,14.1333333 L126.837196,33.1589744 Z M144.339212,14.1333333 L144.339212,17.6123077 L134.036189,17.6123077 L134.036189,21.8251282 L143.864106,21.8251282 L143.864106,25.3041026 L134.036189,25.3041026 L134.036189,29.68 L144.447808,29.68 L144.447808,33.1589744 L130.248912,33.1589744 L130.248912,14.1333333 L144.339212,14.1333333 Z M155.461228,14.1333333 C156.592439,14.1333333 157.592415,14.2646995 158.461186,14.5274359 C159.329956,14.7901723 160.058445,15.1684163 160.646675,15.6621795 C161.234905,16.1559426 161.678335,16.7629451 161.976973,17.4832051 C162.275613,18.2034651 162.424931,19.0165767 162.424931,19.9225641 C162.424931,20.7017094 162.293712,21.4174326 162.031271,22.0697436 C161.76883,22.7220545 161.386486,23.2882882 160.884229,23.7684615 C160.381971,24.2486349 159.771126,24.6404686 159.051675,24.9439744 C158.332225,25.2474802 157.515502,25.4445295 156.601483,25.5351282 L162.45208,33.1589744 L157.863909,33.1589744 L152.325525,25.5894872 L151.212419,25.5894872 L151.212419,33.1589744 L147.425142,33.1589744 L147.425142,14.1333333 L155.461228,14.1333333 Z M155.393355,17.6258974 L151.212419,17.6258974 L151.212419,22.2871795 L155.393355,22.2871795 C156.43407,22.2871795 157.216857,22.09466 157.741739,21.7096154 C158.266621,21.3245707 158.529058,20.7288929 158.529058,19.9225641 C158.529058,19.1252952 158.259834,18.543207 157.721377,18.1762821 C157.18292,17.8093571 156.406921,17.6258974 155.393355,17.6258974 L155.393355,17.6258974 Z" id="PARTNER" fill-rule="nonzero"></path>
                    <path d="M59.573096,45.8731787 L51.4589566,45.8731787 L51.4589566,52.4676018 L50.2168926,52.4676018 L50.2168926,38.198371 L59.9090641,38.198371 L59.9090641,39.3806787 L51.4589566,39.3806787 L51.4589566,44.690871 L59.573096,44.690871 L59.573096,45.8731787 Z M63.8829902,52.4676018 L62.6409262,52.4676018 L62.6409262,38.198371 L63.8829902,38.198371 L63.8829902,52.4676018 Z M79.1780242,52.4676018 L78.0581304,52.4676018 L68.7222887,40.3387557 L68.7121079,52.4676018 L67.4700439,52.4676018 L67.4700439,38.198371 L68.5899377,38.198371 L77.9359602,50.3272172 L77.9359602,38.198371 L79.1780242,38.198371 L79.1780242,52.4676018 Z M94.5443242,52.4676018 L93.2106325,52.4676018 L91.4798876,48.298948 L84.068227,48.298948 L82.3374821,52.4676018 L81.0445138,52.4676018 L87.0308551,38.198371 L88.5579829,38.198371 L94.5443242,52.4676018 Z M84.5670888,47.1166403 L90.9810258,47.1166403 L87.7740573,39.4112557 L84.5670888,47.1166403 Z M108.108613,52.4676018 L106.988719,52.4676018 L97.6528778,40.3387557 L97.6426969,52.4676018 L96.4006329,52.4676018 L96.4006329,38.198371 L97.5205267,38.198371 L106.866549,50.3272172 L106.866549,38.198371 L108.108613,38.198371 L108.108613,52.4676018 Z M118.150327,38.0352941 C118.761182,38.0352941 119.351665,38.1032422 119.921796,38.2391403 C120.491926,38.3750384 121.026416,38.570389 121.52528,38.825198 C122.024144,39.0800069 122.475491,39.3874718 122.879333,39.7476018 C123.283176,40.1077318 123.627625,40.51542 123.91269,40.9706787 L122.874243,41.6637557 C122.629901,41.2900358 122.33975,40.953693 122.00378,40.6547172 C121.66781,40.3557413 121.29791,40.1009362 120.894067,39.8902941 C120.490225,39.679652 120.055846,39.5182754 119.590918,39.4061595 C119.12599,39.2940436 118.645798,39.2379864 118.150327,39.2379864 C117.301919,39.2379864 116.512911,39.3840747 115.783279,39.6762557 C115.053648,39.9684366 114.419048,40.3829196 113.87946,40.9197172 C113.339872,41.4565148 112.915674,42.0986237 112.606853,42.8460633 C112.298032,43.593503 112.143624,44.4224691 112.143624,45.3329864 C112.143624,46.2435038 112.298032,47.0724699 112.606853,47.8199095 C112.915674,48.5673491 113.339872,49.2094581 113.87946,49.7462557 C114.419048,50.2830532 115.053648,50.6975362 115.783279,50.9897172 C116.512911,51.2818981 117.301919,51.4279864 118.150327,51.4279864 C118.645798,51.4279864 119.124293,51.373628 119.585828,51.2649095 C120.047362,51.156191 120.480044,50.9965131 120.883886,50.785871 C121.287729,50.575229 121.657629,50.3204238 121.993599,50.021448 C122.329569,49.7224721 122.61972,49.3827319 122.864062,49.0022172 L123.882147,49.7462557 C123.583507,50.1947194 123.232272,50.5956129 122.828429,50.948948 C122.424587,51.3022831 121.976634,51.6046518 121.484557,51.8560633 C120.99248,52.1074749 120.464777,52.2994281 119.901434,52.4319287 C119.338091,52.5644294 118.754394,52.6306787 118.150327,52.6306787 C117.111875,52.6306787 116.146401,52.4506164 115.253875,52.0904864 C114.361349,51.7303564 113.589309,51.2292396 112.937731,50.587121 C112.286153,49.9450024 111.775419,49.1771896 111.405513,48.2836595 C111.035606,47.3901294 110.850656,46.4065815 110.850656,45.3329864 C110.850656,44.2661862 111.035606,43.2843371 111.405513,42.3874095 C111.775419,41.4904819 112.286153,40.7209704 112.937731,40.0788518 C113.589309,39.4367332 114.361349,38.9356164 115.253875,38.5754864 C116.146401,38.2153564 117.111875,38.0352941 118.150327,38.0352941 Z M127.81535,52.4676018 L126.573286,52.4676018 L126.573286,38.198371 L127.81535,38.198371 L127.81535,52.4676018 Z M141.145479,38.198371 L141.145479,39.3704864 L132.644468,39.3704864 L132.644468,44.7010633 L140.901139,44.7010633 L140.901139,45.8629864 L132.644468,45.8629864 L132.644468,51.2954864 L141.216745,51.2954864 L141.216745,52.4676018 L131.402404,52.4676018 L131.402404,38.198371 L141.145479,38.198371 Z M149.812779,38.198371 C150.600102,38.198371 151.29918,38.2867035 151.910034,38.463371 C152.520885,38.6400386 153.035016,38.8965424 153.452433,39.2328903 C153.86985,39.5692381 154.18715,39.9837211 154.404343,40.4763518 C154.621536,40.9689825 154.73013,41.5312525 154.73013,42.1631787 C154.73013,42.7747203 154.616445,43.3267981 154.389072,43.8194287 C154.161698,44.3120594 153.835914,44.7299398 153.41171,45.0730826 C152.987506,45.4162253 152.473378,45.679524 151.869311,45.8629864 C151.265244,46.0464489 150.583133,46.1381787 149.822959,46.1381787 L149.263012,46.1381787 L154.658864,52.4676018 L153.111375,52.4676018 L147.79697,46.1381787 L145.618267,46.1381787 L145.618267,52.4676018 L144.376203,52.4676018 L144.376203,38.198371 L149.812779,38.198371 Z M149.802598,39.3704864 L145.618267,39.3704864 L145.618267,45.0068326 L149.802598,45.0068326 C150.99037,45.0068326 151.89476,44.7639183 152.515795,44.2780826 C153.13683,43.7922468 153.447343,43.0872859 153.447343,42.1631787 C153.447343,41.2458665 153.135133,40.5510978 152.510704,40.0788518 C151.886276,39.6066059 150.983582,39.3704864 149.802598,39.3704864 L149.802598,39.3704864 Z" id="FINANCIER" fill-rule="nonzero"></path>
                    <path d="M18.4221122,0.360543095 C18.4221122,0.360543095 33.0110876,9.17273924 33.0213175,9.3228019 C33.564855,9.60393734 33.9361748,10.1705572 33.9361748,10.8275648 L33.9361748,31.121206 C33.9361748,31.8210311 33.5127305,32.4217142 32.9065444,32.6798344 C32.8176312,32.7808565 18.7121379,41.2439216 18.7121379,41.2439216 C17.7524628,41.8179193 16.1872494,41.8200351 15.2240369,41.2439216 C15.2240369,41.2439216 1.12001657,32.7816561 1.03145964,32.6807422 C0.425122224,32.4237148 0,31.8242026 0,31.121206 L0,10.8275648 C0,10.1722676 0.371273438,9.60389756 0.916202002,9.32230463 C0.926341545,9.17219576 15.5140626,0.360543095 15.5140626,0.360543095 C16.3170983,-0.119765963 17.6176889,-0.120595922 18.4221122,0.360543095 Z M12.3140482,15.4017094 L5.42978797,15.4017094 L5.42978797,31.7094017 L6.63217589,31.7094017 L6.63217589,25.5538221 L12.4555056,25.5538221 C13.1627962,25.5538221 13.8072068,25.4121839 14.3887568,25.1289033 C14.9703068,24.8456228 15.4693321,24.466645 15.8858476,23.9919586 C16.3023632,23.5172722 16.6245685,22.9736879 16.8524732,22.3611894 C17.0803779,21.7486908 17.1943286,21.1132331 17.1943286,20.4547972 C17.1943286,19.8422986 17.0725193,19.2336373 16.828897,18.628795 C16.5852747,18.0239527 16.247352,17.4803684 15.8151189,16.9980258 C15.3828858,16.5156832 14.8681432,16.1290492 14.2708756,15.8381124 C13.673608,15.5471756 13.0213388,15.4017094 12.3140482,15.4017094 L12.3140482,15.4017094 Z M12.5221057,16.3076923 C13.0340075,16.3076923 13.5179074,16.4167207 13.9738199,16.6347807 C14.4297324,16.8528407 14.8296496,17.1487749 15.1735836,17.522592 C15.5175176,17.8964092 15.7894614,18.3286288 15.989423,18.8192638 C16.1893846,19.3098989 16.2893639,19.8277836 16.2893639,20.3729337 C16.2893639,20.902508 16.2053813,21.412605 16.0374135,21.90324 C15.8694458,22.3938751 15.6294954,22.8299885 15.3175553,23.2115936 C15.0056151,23.5931986 14.6256938,23.8969205 14.1777797,24.1227683 C13.7298657,24.3486162 13.2259699,24.4615385 12.6660774,24.4615385 L12.6660774,24.4615385 L6.78723497,24.4615385 L6.78723497,16.3076923 Z" id="Combined-Shape-Copy-2"></path>
                </g>
            </g>
        </g>
    </g>
</svg>