<svg xmlns="http://www.w3.org/2000/svg" viewBox="0 0 478.99 109.97"><path d="M216.4 67.1v-15c0-5.66-3.6-9.47-9.42-9.52a9.27 9.27 0 0 0-8.41 4.26 8.79 8.79 0 0 0-7.91-4.26 7.92 7.92 0 0 0-7 3.56v-3h-5.2V67.1h5.26V53.84c0-4.16 2.3-6.36 5.86-6.36s5.2 2.25 5.2 6.3V67.1H200V53.84c0-4.16 2.4-6.36 5.86-6.36s5.26 2.25 5.26 6.3V67.1zm77.83-23.94h-8.5V35.9h-5.26v7.26h-4.86v4.76h4.86v10.9c0 5.56 2.15 8.87 8.3 8.87a12.24 12.24 0 0 0 6.51-1.85l-1.5-4.46a9.62 9.62 0 0 1-4.61 1.35c-2.6 0-3.46-1.6-3.46-4V47.93h8.5zm44.43-.6a7.06 7.06 0 0 0-6.31 3.51v-2.9h-5.16V67.1h5.2V53.7c0-4 1.7-6.16 5.1-6.16a8.49 8.49 0 0 1 3.26.6l1.6-4.9a11.13 11.13 0 0 0-3.71-.65zm-67.17 2.5a17.9 17.9 0 0 0-9.77-2.5c-6.06 0-10 2.9-10 7.66 0 3.9 2.9 6.3 8.26 7.06l2.45.35c2.85.4 4.2 1.15 4.2 2.5 0 1.85-1.9 2.9-5.46 2.9a12.76 12.76 0 0 1-8-2.5l-2.37 4.05a17.27 17.27 0 0 0 10.37 3.11c6.9 0 10.92-3.26 10.92-7.8 0-4.2-3.16-6.4-8.36-7.16l-2.45-.35c-2.25-.3-4.06-.75-4.06-2.35 0-1.75 1.7-2.8 4.56-2.8a15.43 15.43 0 0 1 7.46 2.05zM411 42.57a7.06 7.06 0 0 0-6.31 3.51v-2.9h-5.16V67.1h5.2V53.7c0-4 1.7-6.16 5.1-6.16a8.49 8.49 0 0 1 3.26.6l1.6-4.9a11.13 11.13 0 0 0-3.71-.65zm-67.1 12.57c0 7.26 5.06 12.57 12.77 12.57a12.54 12.54 0 0 0 8.61-2.86l-2.5-4.2a10.52 10.52 0 0 1-6.26 2.15c-4.16 0-7.2-3.06-7.2-7.66s3.06-7.6 7.2-7.66a10.52 10.52 0 0 1 6.26 2.15l2.5-4.2a12.54 12.54 0 0 0-8.61-2.86c-7.7 0-12.77 5.3-12.77 12.57zm48.78 0v-12h-5.2v2.9a9.08 9.08 0 0 0-7.56-3.51c-6.7 0-12 5.26-12 12.57s5.26 12.57 12 12.57a9.08 9.08 0 0 0 7.56-3.51v2.9h5.2zm-19.38 0c0-4.2 2.75-7.66 7.26-7.66 4.3 0 7.2 3.3 7.2 7.66s-2.9 7.66-7.2 7.66c-4.5 0-7.26-3.46-7.26-7.66zm-62.86-12.57c-7 0-11.92 5.1-11.92 12.57 0 7.6 5.1 12.57 12.27 12.57a14.55 14.55 0 0 0 9.82-3.36l-2.55-3.86a11.41 11.41 0 0 1-7 2.5c-3.36 0-6.4-1.55-7.16-5.86h17.78c.05-.65.1-1.3.1-2 0-7.46-4.66-12.57-11.37-12.57zm-.1 4.66c3.36 0 5.5 2.1 6.06 5.8H304c.55-3.46 2.65-5.8 6.36-5.8zM441 55.14v-21.6h-5.2v12.52a9.08 9.08 0 0 0-7.56-3.51c-6.7 0-12 5.26-12 12.57s5.26 12.57 12 12.57a9.08 9.08 0 0 0 7.56-3.51v2.9h5.2zm6.1 9.76a1.53 1.53 0 0 1 .6.12 1.57 1.57 0 0 1 .49.33 1.53 1.53 0 0 1 .33.48 1.49 1.49 0 0 1 0 1.18 1.54 1.54 0 0 1-.33.48 1.6 1.6 0 0 1-.49.33 1.5 1.5 0 0 1-.6.12 1.55 1.55 0 0 1-1.44-.93 1.5 1.5 0 0 1 0-1.18 1.52 1.52 0 0 1 .82-.81 1.57 1.57 0 0 1 .64-.12zm0 2.7a1.13 1.13 0 0 0 .46-.09 1.21 1.21 0 0 0 .37-.25 1.19 1.19 0 0 0 0-1.68 1.18 1.18 0 0 0-.37-.25 1.15 1.15 0 0 0-.46-.09 1.19 1.19 0 0 0-.85 2.02 1.19 1.19 0 0 0 .38.25 1.18 1.18 0 0 0 .49.09zm.1-1.9a.64.64 0 0 1 .42.12.4.4 0 0 1 .15.33.38.38 0 0 1-.12.29.56.56 0 0 1-.33.14l.46.53h-.36l-.43-.53h-.14v.53h-.3v-1.4zm-.35.26v.38h.35a.34.34 0 0 0 .19 0 .16.16 0 0 0 .07-.14.16.16 0 0 0-.07-.14.34.34 0 0 0-.19 0zm-25.2-10.82c0-4.2 2.75-7.66 7.26-7.66 4.3 0 7.2 3.3 7.2 7.66s-2.9 7.66-7.2 7.66c-4.5 0-7.26-3.46-7.26-7.66zm-175.9 0v-12h-5.2v2.9a9.08 9.08 0 0 0-7.53-3.48c-6.7 0-12 5.26-12 12.57s5.26 12.57 12 12.57a9.08 9.08 0 0 0 7.56-3.51v2.9h5.2zm-19.38 0c0-4.2 2.75-7.66 7.26-7.66 4.3 0 7.2 3.3 7.2 7.66s-2.9 7.66-7.2 7.66c-4.5 0-7.26-3.45-7.26-7.66z" fill="#231f20"/><path d="M80.46 26.68h31.5v56.6h-31.5z" fill="#ff5f00"/><path d="M82.46,55a35.94,35.94,0,0,1,13.75-28.3,36,36,0,1,0,0,56.61A35.94,35.94,0,0,1,82.46,55Z" fill="#eb001b"/><path d="M154.46 55a36 36 0 0 1-58.25 28.3 36 36 0 0 0 0-56.61A36 36 0 0 1 154.46 55zM151 77.3v-1.16h.47v-.23h-1.17v.24h.47v1.16zm2.3 0v-1.4h-.3l-.42 1-.42-1h-.37v1.4h.2v-1.05l.4.9h.27l.4-.9v1.06z" fill="#f79e1b"/></svg>